<?xml version="1.0" encoding="UTF-8"?><svg id="a" xmlns="http://www.w3.org/2000/svg" xmlns:xlink="http://www.w3.org/1999/xlink" viewBox="0 0 142 32.1"><defs><style>.g{fill:url(#e);}.h{fill:url(#d);}.i{fill:url(#f);}.j{fill:url(#c);}.k{fill:url(#b);}.l{fill:#fff;}</style><linearGradient id="b" x1="-17.19" y1="9.61" x2="-17.19" y2="-11.57" gradientTransform="translate(20.29 9.16) rotate(.14) scale(1 -1)" gradientUnits="userSpaceOnUse"><stop offset="0" stop-color="#54c2ed"/><stop offset="1" stop-color="#00405f"/></linearGradient><linearGradient id="c" x1="-6.19" y1="7.39" x2="-6.19" y2="-10.84" gradientTransform="translate(20.29 9.16) rotate(.14) scale(1 -1)" gradientUnits="userSpaceOnUse"><stop offset="0" stop-color="#5b56a4"/><stop offset="1" stop-color="#354986"/></linearGradient><linearGradient id="d" x1="10.09" y1="6.56" x2="-8.47" y2="6.56" gradientTransform="translate(20.29 9.16) rotate(.14) scale(1 -1)" gradientUnits="userSpaceOnUse"><stop offset="0" stop-color="#682710"/><stop offset="1" stop-color="#dd1f26"/></linearGradient><linearGradient id="e" x1=".92" y1="-.96" x2="7.47" y2="7.29" gradientTransform="translate(20.29 9.16) rotate(.14) scale(1 -1)" gradientUnits="userSpaceOnUse"><stop offset="0" stop-color="#dd7db2"/><stop offset="1" stop-color="#b51d8b"/></linearGradient><linearGradient id="f" x1="-1.16" y1="-.26" x2="8.24" y2="-9.98" gradientTransform="translate(20.29 9.16) rotate(.14) scale(1 -1)" gradientUnits="userSpaceOnUse"><stop offset="0" stop-color="#fbe68c"/><stop offset="1" stop-color="#c0990b"/></linearGradient></defs><g><path class="l" d="M49.2,.7c6.9,0,10.1,4,10.1,9.7-.1,5.6-3.3,9.6-10.2,9.6h-7.7V.7h7.8Zm0,4.4h-2.6V15.6h2.6c3.1,0,4.9-1.6,4.9-5.2-.1-3.7-1.9-5.3-4.9-5.3Z"/><path class="l" d="M75.9,.7V5.1h-8.8v2.9h8v4.4h-8v3.1h9v4.4h-14.1V.6l13.9,.1Z"/><path class="l" d="M85.6,.4c2.4,0,4.8,.6,6.5,1.6V6.7c-1.7-1.2-3.8-1.9-6.1-1.8-1.9,0-2.5,.5-2.5,1.2,0,2.5,10,1.8,10,8.6,0,4.6-3.5,5.9-7.7,5.9-2.8,0-5.4-.6-7.4-1.8v-4.8c2.3,1.6,4.8,2.2,7,2.2,2,0,2.9-.3,2.9-1.3,0-2.8-10-1.9-10-8.8,0-3.9,3.3-5.8,7.3-5.7Z"/><path class="l" d="M101.2,.8V20.1h-5.1V.8h5.1Z"/><path class="l" d="M114.5,.4c2.1,0,4.2,.5,6,1.2V6.4c-1.4-1-3.4-1.6-5.3-1.6-3.1,0-6.1,1.6-6.1,5.6,0,4.8,3.5,5.7,5.7,5.7,.6,0,1-.1,1.3-.1v-6.5h4.8v9.7c-2,.8-4.2,1.3-6.4,1.3-5.5,0-10.7-3.1-10.7-10.1,.1-7.1,5.4-10,10.7-10Z"/><path class="l" d="M124,20.1V.8h4.8l7.5,11.1c-.1-.9-.1-2.1-.1-3.2V.8h5.1V20.1h-4.8l-7.5-11.1c.1,.9,.1,2.1,.1,3.2v7.9h-5.1Z"/></g><g><path class="k" d="M5.5,2.8v-.3c.1-1.3-1.1-2.5-2.4-2.5S.6,1.2,.6,2.5v15.5c0,1.4,1.1,2.5,2.5,2.5s2.5-1.1,2.5-2.5v-.3l-.1-14.9Z"/><path class="j" d="M16.6,2.9v-.3C16.6,1.2,15.5,.1,14.1,.1s-2.5,1.1-2.5,2.5v15.5c0,1.4,1.1,2.5,2.5,2.5s2.5-1.1,2.5-2.5V2.9Z"/><path class="h" d="M27.1,5.1h.3c1.4,0,2.5-1.1,2.5-2.5S28.8,.1,27.4,.1H14.2c-1.4,0-2.5,1.1-2.5,2.5s1.1,2.5,2.5,2.5h12.9Z"/><path class="g" d="M29,4.5l.2-.2c.9-1.1,.8-2.7-.2-3.5-1.1-.9-2.6-.8-3.5,.3,0,.1-.1,.1-.1,.2l-6.2,7.4c-.2-.1-.2,0-.3,.1-.9,1.1-.8,2.6,.3,3.5,1.1,.9,2.6,.8,3.5-.3,.1-.1,.1-.2,.2-.2l6.1-7.3Z"/><path class="i" d="M25.1,19.6c.1,.1,.1,.2,.2,.2,.9,1,2.5,1.1,3.5,.2s1.1-2.5,.2-3.5c0-.1-.1-.1-.2-.2l-6.3-7.3c0-.1-.1-.1-.1-.2-.9-1-2.5-1.1-3.5-.2-1,.9-1.1,2.5-.2,3.5l.2,.2,6.2,7.3Z"/></g><g><path class="l" d="M3.5,31.1c-1.1,0-2.3-.7-2.3-2.2,0-1.6,1.2-2.3,2.3-2.3,.5,0,1,.1,1.3,.3l.4,.2v-.7l-.1-.1c-.4-.3-1-.4-1.6-.4-1.5,0-2.9,1-2.9,3s1.5,2.9,2.9,2.9c.6,0,1.2-.1,1.6-.4l.1-.1v-.7l-.4,.2c-.3,.2-.8,.3-1.3,.3Z"/><path class="l" d="M9.5,25.9c-1.9,0-2.9,1.5-3,2.9,0,1.5,1,2.9,2.9,2.9s2.9-1.5,3-2.9c0-1.4-1-2.9-2.9-2.9Zm0,5.2c-1.5,0-2.3-1.2-2.3-2.3s.8-2.3,2.3-2.3,2.3,1.2,2.3,2.3c0,1.2-.8,2.3-2.3,2.3Z"/><polygon class="l" points="19.7 26 19.5 26 17.2 29.4 14.9 26 14.7 26 14.6 26 14.6 26 14.4 26 14.4 31.7 15.1 31.7 15.1 27.4 17 30.3 17.4 30.3 19.4 27.4 19.4 31.7 20 31.7 20 26 19.8 26 19.7 26"/><polygon class="l" points="27.7 26 27.5 26 25.2 29.4 22.9 26 22.7 26 22.6 26 22.4 26 22.4 31.8 23.1 31.8 23.1 27.4 25 30.3 25.4 30.3 27.4 27.4 27.3 31.8 28 31.8 28 26 27.8 26 27.7 26"/><path class="l" d="M34.3,29.7c0,1-.5,1.5-1.7,1.5-1.1,0-1.7-.5-1.7-1.5v-3.7h-.7v3.7c0,1.4,.8,2.1,2.3,2.1s2.3-.7,2.3-2.1v-3.7h-.7l.2,3.7Z"/><polygon class="l" points="41.3 30.5 37.8 26.1 37.6 26.1 37.5 26.1 37.3 26.1 37.3 31.8 37.9 31.8 37.9 27.3 41.4 31.8 41.6 31.8 41.7 31.8 41.9 31.8 41.9 26.1 41.3 26.1 41.3 30.5"/><rect class="l" x="41.78" y="28.57" width="5.7" height=".7" transform="translate(15.6 73.48) rotate(-89.86)"/><path class="l" d="M49.9,31.2c-1.1,0-2.3-.7-2.3-2.2,0-1.6,1.2-2.3,2.3-2.3,.5,0,1,.1,1.3,.3l.4,.2v-.7l-.1-.1c-.4-.3-1-.4-1.6-.4-1.5,0-2.9,1-2.9,3s1.5,2.9,2.9,2.9c.6,0,1.2-.1,1.6-.4l.1-.1v-.7l-.4,.2c-.3,.2-.8,.3-1.3,.3Z"/><path class="l" d="M55.7,26.1h-.4l-2.6,5.7h.7l.7-1.6h2.8l.7,1.6h.7l-2.6-5.7h0Zm-1.2,3.5l1.1-2.5,1.1,2.5h-2.2Z"/><polygon class="l" points="58.8 26.8 60.8 26.8 60.8 31.8 61.4 31.8 61.5 26.8 63.5 26.8 63.5 26.1 58.8 26.1 58.8 26.8"/><rect class="l" x="62.7" y="28.69" width="5.7" height=".7" transform="translate(36.35 94.52) rotate(-89.86)"/><path class="l" d="M70.8,26.1c-1.9,0-2.9,1.5-3,2.9,0,1.5,1,2.9,2.9,2.9s2.9-1.5,3-2.9c0-1.4-1-2.9-2.9-2.9Zm-.1,5.2c-1.5,0-2.3-1.2-2.3-2.3s.8-2.3,2.3-2.3,2.3,1.2,2.3,2.3-.8,2.3-2.3,2.3Z"/><polygon class="l" points="79.6 30.6 76.2 26.2 76 26.2 75.9 26.2 75.7 26.2 75.7 31.9 76.3 31.9 76.3 27.4 79.8 31.9 80 31.9 80.1 31.9 80.3 31.9 80.3 26.2 79.7 26.2 79.6 30.6"/><path class="l" d="M87.9,26.2h-.4l-2.6,5.7h.7l.7-1.6h2.8l.7,1.6h.7l-2.6-5.7h0Zm-1.2,3.4l1.1-2.5,1.1,2.5h-2.2Z"/><polygon class="l" points="96.2 30.7 92.8 26.2 92.6 26.2 92.5 26.2 92.3 26.2 92.3 31.9 92.9 31.9 92.9 27.5 96.4 31.9 96.6 31.9 96.7 31.9 96.9 31.9 96.9 26.2 96.3 26.2 96.2 30.7"/><path class="l" d="M101,26.2h-1.7v5.7h1.7c1.9,0,3-1.1,3-2.9,0-1.7-1.1-2.8-3-2.8Zm0,5.1h-1.1v-4.4h1.1c1.5,0,2.4,.8,2.4,2.2s-.9,2.2-2.4,2.2Z"/><path class="l" d="M111,26.2h-1.7v5.7h1.7c1.9,0,3-1.1,3-2.9s-1.1-2.7-3-2.8Zm0,5.1h-1.1v-4.4h1.1c1.5,0,2.4,.8,2.4,2.2s-.9,2.2-2.4,2.2Z"/><polygon class="l" points="116.7 29.4 119.7 29.4 119.7 28.8 116.7 28.8 116.7 26.9 119.9 26.9 119.9 26.3 116.1 26.3 116 32 120 32 120 31.3 116.7 31.3 116.7 29.4"/><path class="l" d="M123.7,28.8c-.9-.3-1.4-.5-1.4-1.1,0-.8,1-.8,1.2-.8,.4,0,1,.1,1.4,.3l.4,.2v-.7l-.1-.1c-.4-.2-1-.4-1.6-.4-.9,0-1.9,.5-1.9,1.5,0,1.1,1,1.4,1.8,1.7,.9,.3,1.5,.5,1.5,1.2s-.7,.8-1.3,.8-1.2-.2-1.7-.4l-.4-.2v.7l.1,.1c.5,.3,1.2,.5,1.9,.5s1.2-.2,1.6-.5c.3-.3,.4-.6,.4-1,0-1.2-1-1.5-1.9-1.8Z"/><rect class="l" x="125" y="28.79" width="5.7" height=".7" transform="translate(98.39 156.92) rotate(-89.86)"/><path class="l" d="M134.4,31.2c-1.3,.5-3.6,.2-3.6-2.1,0-1.7,1.2-2.3,2.4-2.3,.5,0,1,.1,1.4,.3l.3,.2v-.7l-.1-.1c-.5-.2-1-.4-1.6-.4-1.5,0-3,.9-3,2.9,0,2.2,1.6,2.9,3,2.9,.6,0,1.2-.1,1.7-.4l.1-.1v-2.8h-.7l.1,2.6Z"/><polygon class="l" points="141.1 26.3 141.1 30.8 137.7 26.3 137.4 26.3 137.3 26.3 137.1 26.3 137.1 32 137.8 32 137.8 27.6 141.3 32 141.5 32 141.6 32 141.8 32 141.8 26.3 141.1 26.3"/></g></svg>